<svg xmlns="http://www.w3.org/2000/svg"  viewBox="0 0 64 64" width="64px" height="64px"><linearGradient id="acyBxN8W5s4RiixAtQ11xa" x1="32" x2="32" y1="984.25" y2="975.746" gradientTransform="matrix(1 0 0 -1 0 990)" gradientUnits="userSpaceOnUse"><stop offset="0" stop-color="#6dc7ff"/><stop offset="1" stop-color="#e6abff"/></linearGradient><path fill="url(#acyBxN8W5s4RiixAtQ11xa)" d="M32 6A4 4 0 1 0 32 14A4 4 0 1 0 32 6Z"/><linearGradient id="acyBxN8W5s4RiixAtQ11xb" x1="32" x2="32" y1="5.625" y2="57.663" gradientUnits="userSpaceOnUse"><stop offset="0" stop-color="#1a6dff"/><stop offset="1" stop-color="#c822ff"/></linearGradient><path fill="url(#acyBxN8W5s4RiixAtQ11xb)" d="M32,15c-2.757,0-5-2.243-5-5s2.243-5,5-5s5,2.243,5,5S34.757,15,32,15z M32,7c-1.654,0-3,1.346-3,3s1.346,3,3,3s3-1.346,3-3S33.654,7,32,7z"/><linearGradient id="acyBxN8W5s4RiixAtQ11xc" x1="32" x2="32" y1="19" y2="21.75" gradientUnits="userSpaceOnUse"><stop offset="0" stop-color="#6dc7ff"/><stop offset="1" stop-color="#e6abff"/></linearGradient><path fill="url(#acyBxN8W5s4RiixAtQ11xc)" d="M28,18c0,2.209,1.791,4,4,4s4-1.791,4-4"/><linearGradient id="acyBxN8W5s4RiixAtQ11xd" x1="32" x2="32" y1="5.625" y2="57.505" gradientUnits="userSpaceOnUse"><stop offset="0" stop-color="#1a6dff"/><stop offset="1" stop-color="#c822ff"/></linearGradient><path fill="url(#acyBxN8W5s4RiixAtQ11xd)" d="M38,17H26c-2.757,0-5,2.243-5,5v16c0,1.654,1.346,3,3,3c0.352,0,0.686-0.072,1-0.184V54c0,2.206,1.794,4,4,4c1.201,0,2.266-0.542,3-1.382C32.734,57.458,33.799,58,35,58c2.206,0,4-1.794,4-4V40.816C39.314,40.928,39.648,41,40,41c1.654,0,3-1.346,3-3V22C43,19.243,40.757,17,38,17z M37,54c0,1.103-0.897,2-2,2s-2-0.897-2-2V42v-1h-2v1v12c0,1.103-0.897,2-2,2s-2-0.897-2-2V38v-1h10v1V54z M41,38c0,0.551-0.448,1-1,1s-1-0.449-1-1V26h-2v9H27v-9h-2v12c0,0.551-0.448,1-1,1s-1-0.449-1-1V22c0-1.654,1.346-3,3-3h12c1.654,0,3,1.346,3,3V38z"/></svg>